<!-- Created with Inkscape (http://www.inkscape.org/) -->
<svg width="83.464mm" height="42.568mm" version="1.1" viewBox="0 0 83.464 42.568" xmlns="http://www.w3.org/2000/svg">
 <g transform="translate(-161.77 -128.04)" fill="#111">
  <g stroke-width=".35278" aria-label="NEJATI CLINIC">
   <path d="m161.77 170.51v-8.89h1.0414l5.8801 7.3025h-0.5461v-7.3025h1.27v8.89h-1.0414l-5.8801-7.3025h0.5461v7.3025z"/>
   <path d="m172.61 165.45h4.572v1.0795h-4.572zm0.1143 3.9497h5.1816v1.1049h-6.4516v-8.89h6.2738v1.1049h-5.0038z"/>
   <path d="m180.47 170.61q-0.7874 0-1.4732-0.3302t-1.1176-0.9525l0.7366-0.8636q0.3683 0.508 0.8255 0.7874 0.4699 0.2667 1.0287 0.2667 1.524 0 1.524-1.8034v-4.9911h-3.2131v-1.1049h4.4704v6.0325q0 1.4859-0.7112 2.2225-0.6985 0.7366-2.0701 0.7366z"/>
   <path d="m183.67 170.51 4.0259-8.89h1.2573l4.0386 8.89h-1.3335l-3.5941-8.1788h0.508l-3.5941 8.1788zm1.7145-2.2225 0.3429-1.016h5.0038l0.3683 1.016z"/>
   <path d="m195 170.51v-7.7851h-3.048v-1.1049h7.3533v1.1049h-3.048v7.7851z"/>
   <path d="m200.05 170.51v-8.89h1.27v8.89z"/>
   <path d="m210.11 170.61q-1.016 0-1.8796-0.3302-0.8509-0.3429-1.4859-0.9525-0.6223-0.6223-0.9779-1.4478t-0.3556-1.8161 0.3556-1.8161 0.9906-1.4351q0.635-0.6223 1.4859-0.9525 0.8636-0.3429 1.8796-0.3429 1.0287 0 1.8923 0.3556 0.8763 0.3429 1.4859 1.0287l-0.8255 0.8001q-0.508-0.5334-1.143-0.7874-0.635-0.2667-1.3589-0.2667-0.7493 0-1.397 0.254-0.635 0.254-1.1049 0.7112t-0.7366 1.0922q-0.254 0.6223-0.254 1.3589t0.254 1.3716q0.2667 0.6223 0.7366 1.0795t1.1049 0.7112q0.6477 0.254 1.397 0.254 0.7239 0 1.3589-0.254 0.635-0.2667 1.143-0.8128l0.8255 0.8001q-0.6096 0.6858-1.4859 1.0414-0.8636 0.3556-1.905 0.3556z"/>
   <path d="m214.68 170.51v-8.89h1.27v7.7851h4.8133v1.1049z"/>
   <path d="m221.59 170.51v-8.89h1.27v8.89z"/>
   <path d="m224.89 170.51v-8.89h1.0414l5.8801 7.3025h-0.5461v-7.3025h1.27v8.89h-1.0414l-5.8801-7.3025h0.5461v7.3025z"/>
   <path d="m234.57 170.51v-8.89h1.27v8.89z"/>
   <path d="m241.85 170.61q-1.016 0-1.8796-0.3302-0.8509-0.3429-1.4859-0.9525-0.6223-0.6223-0.9779-1.4478t-0.3556-1.8161 0.3556-1.8161 0.9906-1.4351q0.635-0.6223 1.4859-0.9525 0.8636-0.3429 1.8796-0.3429 1.0287 0 1.8923 0.3556 0.8763 0.3429 1.4859 1.0287l-0.8255 0.8001q-0.508-0.5334-1.143-0.7874-0.635-0.2667-1.3589-0.2667-0.7493 0-1.397 0.254-0.635 0.254-1.1049 0.7112t-0.7366 1.0922q-0.254 0.6223-0.254 1.3589t0.254 1.3716q0.2667 0.6223 0.7366 1.0795t1.1049 0.7112q0.6477 0.254 1.397 0.254 0.7239 0 1.3589-0.254 0.635-0.2667 1.143-0.8128l0.8255 0.8001q-0.6096 0.6858-1.4859 1.0414-0.8636 0.3556-1.905 0.3556z"/>
  </g>
  <path d="m186.36 128.04v25.88h1.9734v-22.468l11.946 14.612c-0.0143-0.0513-0.0293-0.10237-0.043-0.1541-0.0248-0.0945-0.0485-0.18936-0.0714-0.28489-0.0227-0.0953-0.044-0.1915-0.0643-0.2879-0.0205-0.0966-0.0398-0.19363-0.0579-0.29131-0.0182-0.0975-0.0353-0.19535-0.0511-0.29387-0.0158-0.0985-0.0308-0.19792-0.0445-0.29751-0.0137-0.0996-0.0357-0.33599-0.0438-0.50462-0.022-0.46165-0.0282-0.98528-0.0128-1.3862l-11.867-14.524zm20.083 0v4.0946c0.081-0.0395 0.16243-0.0782 0.24472-0.11585 0.0861-0.0395 0.1729-0.0782 0.2601-0.11584 0.0874-0.0376 0.17569-0.0742 0.26439-0.10985 0.0887-0.0372 0.17782-0.0731 0.26759-0.10772 0.0898-0.0348 0.18017-0.0684 0.27079-0.10088 0.0908-0.0325 0.18188-0.0637 0.27379-0.0938 0.0917-0.0301 0.1838-0.0594 0.27656-0.0872 0.0383-0.0113 0.0769-0.0218 0.11541-0.0329v-3.3305zm5.4152 3.1835c-1.6778 0-3.2264 0.29666-4.646 0.89018-1.4198 0.5713-2.6673 1.3848-3.7428 2.4397-1.0541 1.055-1.8714 2.2967-2.4521 3.7253-0.58069 1.4068-0.87136 2.9563-0.87136 4.6486 0 1.6925 0.29067 3.2529 0.87136 4.6815 0.5807 1.4068 1.398 2.6374 2.4521 3.6924 1.0539 1.0552 2.2907 1.8793 3.7105 2.4728 1.4412 0.57152 3.0005 0.85727 4.6783 0.85727 1.5918 0 3.076-0.26374 4.4526-0.79122 1.3982-0.5495 2.5919-1.363 3.5812-2.4399l-1.0321-1.0879c-0.96798 0.98913-2.0437 1.7034-3.2266 2.1431-1.1616 0.41762-2.3985 0.62643-3.7105 0.62643-1.4412 0-2.7855-0.25284-4.033-0.75831-1.2262-0.50546-2.3016-1.22-3.2267-2.143-0.90343-0.92309-1.6132-2.0001-2.1296-3.2309-0.49478-1.2309-0.74206-2.5716-0.74206-4.0222s0.24728-2.7913 0.74206-4.0222c0.51637-1.2306 1.2262-2.3078 2.1296-3.2309 0.92502-0.92309 2.0005-1.6374 3.2267-2.143 1.2475-0.50547 2.5919-0.7581 4.033-0.7581 1.3121 0 2.5489 0.21971 3.7105 0.65914 1.183 0.41762 2.2587 1.1099 3.2266 2.077l1.0321-1.0879c-0.98935-1.077-2.183-1.8791-3.5812-2.4066-1.3766-0.52748-2.8608-0.79122-4.4526-0.79122"/>
 </g>
</svg>
